<?xml version="1.0" standalone="no"?>
<svg xmlns:xlink="http://www.w3.org/1999/xlink" id="wave" style="transform:rotate(0deg); transition: 0.3s" viewBox="0 0 1440 140" version="1.1" xmlns="http://www.w3.org/2000/svg"><defs><linearGradient id="sw-gradient-0" x1="0" x2="0" y1="1" y2="0"><stop stop-color="rgba(238, 237, 237, 1)" offset="0%"/><stop stop-color="rgba(238, 237, 237, 1)" offset="100%"/></linearGradient></defs><path style="transform:translate(0, 0px); opacity:1" fill="url(#sw-gradient-0)" d="M0,14L11.4,25.7C22.9,37,46,61,69,79.3C91.4,98,114,112,137,102.7C160,93,183,61,206,44.3C228.6,28,251,28,274,30.3C297.1,33,320,37,343,32.7C365.7,28,389,14,411,14C434.3,14,457,28,480,46.7C502.9,65,526,89,549,88.7C571.4,89,594,65,617,63C640,61,663,79,686,79.3C708.6,79,731,61,754,49C777.1,37,800,33,823,42C845.7,51,869,75,891,74.7C914.3,75,937,51,960,51.3C982.9,51,1006,75,1029,84C1051.4,93,1074,89,1097,84C1120,79,1143,75,1166,63C1188.6,51,1211,33,1234,39.7C1257.1,47,1280,79,1303,84C1325.7,89,1349,65,1371,56C1394.3,47,1417,51,1440,63C1462.9,75,1486,93,1509,100.3C1531.4,107,1554,103,1577,95.7C1600,89,1623,79,1634,74.7L1645.7,70L1645.7,140L1634.3,140C1622.9,140,1600,140,1577,140C1554.3,140,1531,140,1509,140C1485.7,140,1463,140,1440,140C1417.1,140,1394,140,1371,140C1348.6,140,1326,140,1303,140C1280,140,1257,140,1234,140C1211.4,140,1189,140,1166,140C1142.9,140,1120,140,1097,140C1074.3,140,1051,140,1029,140C1005.7,140,983,140,960,140C937.1,140,914,140,891,140C868.6,140,846,140,823,140C800,140,777,140,754,140C731.4,140,709,140,686,140C662.9,140,640,140,617,140C594.3,140,571,140,549,140C525.7,140,503,140,480,140C457.1,140,434,140,411,140C388.6,140,366,140,343,140C320,140,297,140,274,140C251.4,140,229,140,206,140C182.9,140,160,140,137,140C114.3,140,91,140,69,140C45.7,140,23,140,11,140L0,140Z"/><defs><linearGradient id="sw-gradient-1" x1="0" x2="0" y1="1" y2="0"><stop stop-color="rgba(168.802, 166.593, 165.884, 1)" offset="0%"/><stop stop-color="rgba(73, 65, 112, 1)" offset="100%"/></linearGradient></defs><path style="transform:translate(0, 50px); opacity:0.9" fill="url(#sw-gradient-1)" d="M0,28L11.4,35C22.9,42,46,56,69,51.3C91.4,47,114,23,137,25.7C160,28,183,56,206,60.7C228.6,65,251,47,274,32.7C297.1,19,320,9,343,14C365.7,19,389,37,411,44.3C434.3,51,457,47,480,53.7C502.9,61,526,79,549,88.7C571.4,98,594,98,617,91C640,84,663,70,686,74.7C708.6,79,731,103,754,112C777.1,121,800,117,823,105C845.7,93,869,75,891,56C914.3,37,937,19,960,14C982.9,9,1006,19,1029,23.3C1051.4,28,1074,28,1097,32.7C1120,37,1143,47,1166,49C1188.6,51,1211,47,1234,37.3C1257.1,28,1280,14,1303,23.3C1325.7,33,1349,65,1371,81.7C1394.3,98,1417,98,1440,95.7C1462.9,93,1486,89,1509,72.3C1531.4,56,1554,28,1577,32.7C1600,37,1623,75,1634,93.3L1645.7,112L1645.7,140L1634.3,140C1622.9,140,1600,140,1577,140C1554.3,140,1531,140,1509,140C1485.7,140,1463,140,1440,140C1417.1,140,1394,140,1371,140C1348.6,140,1326,140,1303,140C1280,140,1257,140,1234,140C1211.4,140,1189,140,1166,140C1142.9,140,1120,140,1097,140C1074.3,140,1051,140,1029,140C1005.7,140,983,140,960,140C937.1,140,914,140,891,140C868.6,140,846,140,823,140C800,140,777,140,754,140C731.4,140,709,140,686,140C662.9,140,640,140,617,140C594.3,140,571,140,549,140C525.7,140,503,140,480,140C457.1,140,434,140,411,140C388.6,140,366,140,343,140C320,140,297,140,274,140C251.4,140,229,140,206,140C182.9,140,160,140,137,140C114.3,140,91,140,69,140C45.7,140,23,140,11,140L0,140Z"/></svg>