<?xml version="1.0" encoding="UTF-8"?>
<svg id="Capa_2" data-name="Capa 2" xmlns="http://www.w3.org/2000/svg" viewBox="0 0 188.27 232.75">
  <defs>
    <style>
      .cls-1 {
        stroke: #0e0d08;
        stroke-miterlimit: 10;
      }
    </style>
  </defs>
  <path class="cls-1" d="m94.02,52.05c-21.02,0-38.06,15.99-38.06,35.72s17.04,35.72,38.06,35.72,38.06-15.99,38.06-35.72-17.04-35.72-38.06-35.72Zm.58,57.28c-13.69,0-24.8-10.09-24.8-22.54s11.1-22.54,24.8-22.54,24.8,10.09,24.8,22.54-11.1,22.54-24.8,22.54Z"/>
  <path class="cls-1" d="m158.89,24.75C120.06-7.82,80.4-1.23,56.18,8.24c-15.73,6.15-29,16.5-38.51,29.44C5.1,54.8-6.89,83.64,6.12,113.13c0,0,11.28,26.5,27.42,46.16l60.48,72.73c47.57-44.56,84.19-109.31,84.19-109.31,29.7-61.08-19.32-97.96-19.32-97.96Zm8.18,94.41s-31.64,55.21-72.74,93.2l-52.25-62.01c-13.95-16.76-23.69-39.35-23.69-39.35-11.24-25.14-.88-49.74,9.98-64.33,8.21-11.04,19.68-19.86,33.27-25.1,20.92-8.07,55.19-13.69,88.74,14.08,0,0,42.35,31.44,16.69,83.52Z"/>
</svg>