<?xml version="1.0" standalone="no"?>
<svg xmlns:xlink="http://www.w3.org/1999/xlink" id="wave" style="transform:rotate(0deg); transition: 0.3s" viewBox="0 0 1440 130" version="1.1" xmlns="http://www.w3.org/2000/svg"><defs><linearGradient id="sw-gradient-0" x1="0" x2="0" y1="1" y2="0"><stop stop-color="rgba(238, 237, 237, 1)" offset="0%"/><stop stop-color="rgba(255, 254, 253, 1)" offset="100%"/></linearGradient></defs><path style="transform:translate(0, 0px); opacity:1" fill="url(#sw-gradient-0)" d="M0,52L11.4,49.8C22.9,48,46,43,69,34.7C91.4,26,114,13,137,10.8C160,9,183,17,206,34.7C228.6,52,251,78,274,88.8C297.1,100,320,95,343,91C365.7,87,389,82,411,71.5C434.3,61,457,43,480,47.7C502.9,52,526,78,549,86.7C571.4,95,594,87,617,86.7C640,87,663,95,686,82.3C708.6,69,731,35,754,19.5C777.1,4,800,9,823,15.2C845.7,22,869,30,891,32.5C914.3,35,937,30,960,39C982.9,48,1006,69,1029,69.3C1051.4,69,1074,48,1097,32.5C1120,17,1143,9,1166,19.5C1188.6,30,1211,61,1234,69.3C1257.1,78,1280,65,1303,65C1325.7,65,1349,78,1371,86.7C1394.3,95,1417,100,1440,93.2C1462.9,87,1486,69,1509,56.3C1531.4,43,1554,35,1577,32.5C1600,30,1623,35,1634,36.8L1645.7,39L1645.7,130L1634.3,130C1622.9,130,1600,130,1577,130C1554.3,130,1531,130,1509,130C1485.7,130,1463,130,1440,130C1417.1,130,1394,130,1371,130C1348.6,130,1326,130,1303,130C1280,130,1257,130,1234,130C1211.4,130,1189,130,1166,130C1142.9,130,1120,130,1097,130C1074.3,130,1051,130,1029,130C1005.7,130,983,130,960,130C937.1,130,914,130,891,130C868.6,130,846,130,823,130C800,130,777,130,754,130C731.4,130,709,130,686,130C662.9,130,640,130,617,130C594.3,130,571,130,549,130C525.7,130,503,130,480,130C457.1,130,434,130,411,130C388.6,130,366,130,343,130C320,130,297,130,274,130C251.4,130,229,130,206,130C182.9,130,160,130,137,130C114.3,130,91,130,69,130C45.7,130,23,130,11,130L0,130Z"/></svg>