<?xml version="1.0" standalone="no"?><svg xmlns="http://www.w3.org/2000/svg" viewBox="0 0 1440 320"><path fill="#eeeded" fill-opacity="1" d="M0,192L21.8,202.7C43.6,213,87,235,131,224C174.5,213,218,171,262,170.7C305.5,171,349,213,393,197.3C436.4,181,480,107,524,69.3C567.3,32,611,32,655,64C698.2,96,742,160,785,170.7C829.1,181,873,139,916,149.3C960,160,1004,224,1047,229.3C1090.9,235,1135,181,1178,160C1221.8,139,1265,149,1309,176C1352.7,203,1396,245,1418,266.7L1440,288L1440,320L1418.2,320C1396.4,320,1353,320,1309,320C1265.5,320,1222,320,1178,320C1134.5,320,1091,320,1047,320C1003.6,320,960,320,916,320C872.7,320,829,320,785,320C741.8,320,698,320,655,320C610.9,320,567,320,524,320C480,320,436,320,393,320C349.1,320,305,320,262,320C218.2,320,175,320,131,320C87.3,320,44,320,22,320L0,320Z"></path></svg>